<svg height='300px'
     width='300px'
     fill="#FFF"
     xmlns="http://www.w3.org/2000/svg"
     version="1.1"
     x="0px"
     y="0px"
     viewBox="0 0 100 100"
     style="enable-background:new 0 0 100 100;"
     xml:space="preserve">
    <path d="M84.4,9.2H51.3c-3.8,0-6.9,3.1-6.9,6.9v23.4c0,3.6-2.9,6.5-6.5,6.5H15.2c-3.6,0-6.5,2.9-6.5,6.6v31.3c0,3.8,3.1,6.9,6.9,6.9  h68.8c3.8,0,6.9-3.1,6.9-6.9V16.1C91.3,12.3,88.2,9.2,84.4,9.2z M64.3,67.9c0,1.7-1.4,3-3.1,3H32.7c-0.2,0-0.3,0.2-0.1,0.3l4.2,4.2  c0.2,0.2,0.2,0.5,0,0.7L33.9,79c-0.2,0.2-0.5,0.2-0.7,0l-8.6-8.6c-1.2-1.2-1.2-3.1,0-4.3l8.4-8.4c0.2-0.2,0.5-0.2,0.7,0l2.9,2.9  c0.2,0.2,0.2,0.5,0,0.7l-4.2,4.2c-0.1,0.1,0,0.3,0.1,0.3h26.2c0.3,0,0.5-0.2,0.5-0.5v-9.7c0-0.3,0.2-0.5,0.5-0.5h4.1  c0.3,0,0.5,0.2,0.5,0.5V67.9z M82.8,35.2c0,0.2-0.1,0.3-0.3,0.3h-2.6c-0.2,0-0.3-0.1-0.3-0.3V23.3c0-1.3-1-2.3-2.3-2.3H66  c-0.2,0-0.3-0.1-0.3-0.3v-2.6c0-0.2,0.1-0.3,0.3-0.3h11.3c3,0,5.5,2.4,5.5,5.5V35.2z"/>
</svg>
